<svg width="19" height="18" viewBox="0 0 19 18" fill="none" xmlns="http://www.w3.org/2000/svg">
<path d="M7.41637 14.9167C7.41629 15.0715 7.45937 15.2233 7.54077 15.3551C7.62217 15.4868 7.73867 15.5933 7.8772 15.6625L9.54387 16.4958C9.67095 16.5593 9.81215 16.5893 9.95407 16.5829C10.096 16.5764 10.2339 16.5338 10.3547 16.4591C10.4755 16.3844 10.5753 16.28 10.6444 16.1559C10.7135 16.0318 10.7498 15.8921 10.7497 15.75V9.91667C10.7499 9.50365 10.9034 9.10542 11.1805 8.79917L17.1997 2.14167C17.3076 2.02213 17.3785 1.8739 17.4039 1.7149C17.4294 1.5559 17.4082 1.39294 17.343 1.24573C17.2777 1.09851 17.1712 0.973352 17.0364 0.885376C16.9015 0.797401 16.7441 0.75038 16.583 0.75H1.58303C1.42187 0.750058 1.26419 0.796846 1.12907 0.884697C0.993963 0.972548 0.887224 1.09769 0.821787 1.24497C0.756349 1.39225 0.735022 1.55534 0.760387 1.71449C0.785752 1.87364 0.856722 2.02203 0.9647 2.14167L6.98553 8.79917C7.26265 9.10542 7.41618 9.50365 7.41637 9.91667V14.9167Z" stroke="white" stroke-width="1.5" stroke-linecap="round" stroke-linejoin="round"/>
</svg>
