<svg width="16" height="19" viewBox="0 0 16 19" fill="none" xmlns="http://www.w3.org/2000/svg">
<path d="M14.3333 7.66667C14.3333 11.8275 9.7175 16.1608 8.1675 17.4992C8.0231 17.6077 7.84733 17.6665 7.66667 17.6665C7.486 17.6665 7.31023 17.6077 7.16583 17.4992C5.61583 16.1608 1 11.8275 1 7.66667C1 5.89856 1.70238 4.20286 2.95262 2.95262C4.20286 1.70238 5.89856 1 7.66667 1C9.43478 1 11.1305 1.70238 12.3807 2.95262C13.631 4.20286 14.3333 5.89856 14.3333 7.66667Z" stroke="white" stroke-width="2" stroke-linecap="round" stroke-linejoin="round"/>
<path d="M7.66667 10.1667C9.04738 10.1667 10.1667 9.04738 10.1667 7.66667C10.1667 6.28595 9.04738 5.16667 7.66667 5.16667C6.28595 5.16667 5.16667 6.28595 5.16667 7.66667C5.16667 9.04738 6.28595 10.1667 7.66667 10.1667Z" stroke="white" stroke-width="2" stroke-linecap="round" stroke-linejoin="round"/>
</svg>
