<svg width="17" height="19" viewBox="0 0 17 19" fill="none" xmlns="http://www.w3.org/2000/svg">
<path d="M10.75 10.75V12.5833L12.0833 13.4167M10.75 2.41667H12.4167C12.8587 2.41667 13.2826 2.59226 13.5952 2.90482C13.9077 3.21738 14.0833 3.64131 14.0833 4.08333V4.77667M4.08333 2.41667H2.41667C1.97464 2.41667 1.55072 2.59226 1.23816 2.90482C0.925595 3.21738 0.75 3.64131 0.75 4.08333V15.75C0.75 16.192 0.925595 16.616 1.23816 16.9285C1.55072 17.2411 1.97464 17.4167 2.41667 17.4167H4.08333M15.75 12.4167C15.75 15.1781 13.5114 17.4167 10.75 17.4167C7.98858 17.4167 5.75 15.1781 5.75 12.4167C5.75 9.65524 7.98858 7.41667 10.75 7.41667C13.5114 7.41667 15.75 9.65524 15.75 12.4167ZM4.91667 0.75H9.91667C10.3769 0.75 10.75 1.1231 10.75 1.58333V3.25C10.75 3.71024 10.3769 4.08333 9.91667 4.08333H4.91667C4.45643 4.08333 4.08333 3.71024 4.08333 3.25V1.58333C4.08333 1.1231 4.45643 0.75 4.91667 0.75Z" stroke="white" stroke-width="1.5" stroke-linecap="round" stroke-linejoin="round"/>
</svg>
